<svg xmlns="http://www.w3.org/2000/svg" border="0" data-ac-wrapper-id="2" width="1138" height="441" class="anychart-ui-support" ac-id="ac_stage_3b5ab1ed_0" style="display: block;"><defs><clipPath clip-rule="nonzero" id="ac_clip_3b5ab1ed_h"><path data-ac-wrapper-id="29" id="ac_rect_3b5ab1ed_i" fill="none" stroke="black" d="M 0 0 L 238.59375 0 238.59375 26.5 0 26.5 0 0 Z"/></clipPath><clipPath clip-rule="nonzero" id="ac_clip_3b5ab1ed_2i"><path data-ac-wrapper-id="100" id="ac_rect_3b5ab1ed_2j" fill="none" stroke="black" d="M 100 100 L 726 100 726 398 100 398 100 100 Z"/></clipPath><clipPath clip-rule="nonzero" id="ac_clip_3b5ab1ed_2o"><path data-ac-wrapper-id="104" id="ac_rect_3b5ab1ed_2p" fill="none" stroke="black" d="M 100 100 L 726 100 726 398 100 398 100 100 Z"/></clipPath><clipPath clip-rule="nonzero" id="ac_clip_3b5ab1ed_36"><path data-ac-wrapper-id="120" id="ac_rect_3b5ab1ed_37" fill="none" stroke="black" d="M 99 100 L 726 100 726 398 99 398 99 100 Z"/></clipPath><clipPath clip-rule="nonzero" id="ac_clip_3b5ab1ed_48"><path data-ac-wrapper-id="160" id="ac_rect_3b5ab1ed_49" fill="none" stroke="black" d="M 0 0 L 293.162109375 0 293.162109375 55 0 55 0 0 Z"/></clipPath><clipPath clip-rule="nonzero" id="ac_clip_3b5ab1ed_4g"><path data-ac-wrapper-id="166" id="ac_rect_3b5ab1ed_4h" fill="none" stroke="black" d="M 806.6 71 L 1128 71 1128 366 806.6 366 806.6 71 Z"/></clipPath></defs><g data-ac-wrapper-id="3" id="ac_layer_3b5ab1ed_1"><g data-ac-wrapper-id="14" role="article" aria-label="column chart  entitled Bitcoin - Capitalization vs Market Share&lt;br&gt;&#10;            &lt;span style=&quot;font-size: 12px; color: #999&quot;&gt;(last 12 months)&lt;/span&gt;, with 1 line series, 1 column series, . Y-scale minimum value is 0 , maximum value is 360000000000. X-scale with 12 categories: Apr, May, Jun, Jul, Aug, Sep, Oct, Nov, Dec, Jan, Feb, Mar, . " id="ac_chart_3b5ab1ed_2"><g data-ac-wrapper-id="15" id="ac_layer_3b5ab1ed_4"><path data-ac-wrapper-id="16" id="ac_path_3b5ab1ed_3" fill="#ffffff" stroke="none" d="M 0 0 L 796.6 0 796.6 0 796.6 441 796.6 441 0 441 0 441 0 0 0 0 Z"/></g><path data-ac-wrapper-id="119" clip-path="url(&quot;#ac_clip_3b5ab1ed_36&quot;)" clipPathUnits="userSpaceOnUse" id="ac_path_3b5ab1ed_38" fill="none" stroke="none" d="M 0,0"/><g data-ac-wrapper-id="87" clip-path="url(&quot;#ac_clip_3b5ab1ed_2i&quot;)" clipPathUnits="userSpaceOnUse" id="ac_layer_3b5ab1ed_2k"><path data-ac-wrapper-id="88" id="ac_path_3b5ab1ed_25" fill="#7bc0f7" stroke="#1976d2" stroke-width="1.5" d="M 110.5 235.5 L 139.5 235.5 139.5 397.5 110.5 397.5 Z"/><path data-ac-wrapper-id="89" id="ac_path_3b5ab1ed_26" fill="#7bc0f7" stroke="#1976d2" stroke-width="1.5" d="M 162.5 231.5 L 191.5 231.5 191.5 397.5 162.5 397.5 Z"/><path data-ac-wrapper-id="90" id="ac_path_3b5ab1ed_27" fill="#7bc0f7" stroke="#1976d2" stroke-width="1.5" d="M 215.5 214.5 L 244.5 214.5 244.5 397.5 215.5 397.5 Z"/><path data-ac-wrapper-id="91" id="ac_path_3b5ab1ed_28" fill="#7bc0f7" stroke="#1976d2" stroke-width="1.5" d="M 267.5 204.5 L 296.5 204.5 296.5 397.5 267.5 397.5 Z"/><path data-ac-wrapper-id="92" id="ac_path_3b5ab1ed_29" fill="#7bc0f7" stroke="#1976d2" stroke-width="1.5" d="M 319.5 191.5 L 348.5 191.5 348.5 397.5 319.5 397.5 Z"/><path data-ac-wrapper-id="93" id="ac_path_3b5ab1ed_2a" fill="#7bc0f7" stroke="#1976d2" stroke-width="1.5" d="M 371.5 196.5 L 400.5 196.5 400.5 397.5 371.5 397.5 Z"/><path data-ac-wrapper-id="94" id="ac_path_3b5ab1ed_2b" fill="#7bc0f7" stroke="#1976d2" stroke-width="1.5" d="M 424.5 196.5 L 453.5 196.5 453.5 397.5 424.5 397.5 Z"/><path data-ac-wrapper-id="95" id="ac_path_3b5ab1ed_2c" fill="#7bc0f7" stroke="#1976d2" stroke-width="1.5" d="M 476.5 199.5 L 505.5 199.5 505.5 397.5 476.5 397.5 Z"/><path data-ac-wrapper-id="96" id="ac_path_3b5ab1ed_2d" fill="#7bc0f7" stroke="#1976d2" stroke-width="1.5" d="M 528.5 194.5 L 557.5 194.5 557.5 397.5 528.5 397.5 Z"/><path data-ac-wrapper-id="97" id="ac_path_3b5ab1ed_2e" fill="#7bc0f7" stroke="#1976d2" stroke-width="1.5" d="M 580.5 200.5 L 609.5 200.5 609.5 397.5 580.5 397.5 Z"/><path data-ac-wrapper-id="98" id="ac_path_3b5ab1ed_2f" fill="#7bc0f7" stroke="#1976d2" stroke-width="1.5" d="M 633.5 207.5 L 662.5 207.5 662.5 397.5 633.5 397.5 Z"/><path data-ac-wrapper-id="99" id="ac_path_3b5ab1ed_2g" fill="#333" stroke="#333" d="M 685.5 396.5 L 714.5 396.5 714.5 397.5 685.5 397.5 Z" fill-opacity="0.85" stroke-opacity="0.85"/></g><g data-ac-wrapper-id="101" clip-path="url(&quot;#ac_clip_3b5ab1ed_2i&quot;)" clipPathUnits="userSpaceOnUse" id="ac_layer_3b5ab1ed_2l"/><g data-ac-wrapper-id="102" clip-path="url(&quot;#ac_clip_3b5ab1ed_2o&quot;)" clipPathUnits="userSpaceOnUse" id="ac_layer_3b5ab1ed_2q"><path data-ac-wrapper-id="103" id="ac_path_3b5ab1ed_2m" fill="none" stroke="#60727b" stroke-width="1.5" d="M 125.125 255.12875471303335 L 177.375 176.92383912664442 229.625 128.63423118345554 281.875 170.29432140169445 334.125 192.17266484858334 386.375 215.19137946187777 438.625 193.71665959109444 490.875 228.7873754640611 543.125 239.2026937416111 595.375 186.40426709993335 647.625 192.8834534519389 699.875 195.00488674129443"/></g><g data-ac-wrapper-id="105" clip-path="url(&quot;#ac_clip_3b5ab1ed_2o&quot;)" clipPathUnits="userSpaceOnUse" id="ac_layer_3b5ab1ed_2r"/><g data-ac-wrapper-id="106" clip-path="url(&quot;#ac_clip_3b5ab1ed_2o&quot;)" clipPathUnits="userSpaceOnUse" id="ac_layer_3b5ab1ed_34"><path data-ac-wrapper-id="107" id="ac_path_3b5ab1ed_2s" fill="#60727b" fill-opacity="1" stroke="#435056" stroke-opacity="1" d="M 129.125 255.12875471303335 A 4 4 0 0 1 121.125 255.12875471303335 A 4 4 0 0 1 129.125 255.12875471303335"/><path data-ac-wrapper-id="108" id="ac_path_3b5ab1ed_2t" fill="#60727b" fill-opacity="1" stroke="#435056" stroke-opacity="1" d="M 181.375 176.92383912664442 A 4 4 0 0 1 173.375 176.92383912664442 A 4 4 0 0 1 181.375 176.92383912664442"/><path data-ac-wrapper-id="109" id="ac_path_3b5ab1ed_2u" fill="#60727b" fill-opacity="1" stroke="#435056" stroke-opacity="1" d="M 233.625 128.63423118345554 A 4 4 0 0 1 225.625 128.63423118345554 A 4 4 0 0 1 233.625 128.63423118345554"/><path data-ac-wrapper-id="110" id="ac_path_3b5ab1ed_2v" fill="#60727b" fill-opacity="1" stroke="#435056" stroke-opacity="1" d="M 285.875 170.29432140169445 A 4 4 0 0 1 277.875 170.29432140169445 A 4 4 0 0 1 285.875 170.29432140169445"/><path data-ac-wrapper-id="111" id="ac_path_3b5ab1ed_2w" fill="#60727b" fill-opacity="1" stroke="#435056" stroke-opacity="1" d="M 338.125 192.17266484858334 A 4 4 0 0 1 330.125 192.17266484858334 A 4 4 0 0 1 338.125 192.17266484858334"/><path data-ac-wrapper-id="112" id="ac_path_3b5ab1ed_2x" fill="#60727b" fill-opacity="1" stroke="#435056" stroke-opacity="1" d="M 390.375 215.19137946187777 A 4 4 0 0 1 382.375 215.19137946187777 A 4 4 0 0 1 390.375 215.19137946187777"/><path data-ac-wrapper-id="113" id="ac_path_3b5ab1ed_2y" fill="#60727b" fill-opacity="1" stroke="#435056" stroke-opacity="1" d="M 442.625 193.71665959109444 A 4 4 0 0 1 434.625 193.71665959109444 A 4 4 0 0 1 442.625 193.71665959109444"/><path data-ac-wrapper-id="114" id="ac_path_3b5ab1ed_2z" fill="#60727b" fill-opacity="1" stroke="#435056" stroke-opacity="1" d="M 494.875 228.7873754640611 A 4 4 0 0 1 486.875 228.7873754640611 A 4 4 0 0 1 494.875 228.7873754640611"/><path data-ac-wrapper-id="115" id="ac_path_3b5ab1ed_30" fill="#60727b" fill-opacity="1" stroke="#435056" stroke-opacity="1" d="M 547.125 239.2026937416111 A 4 4 0 0 1 539.125 239.2026937416111 A 4 4 0 0 1 547.125 239.2026937416111"/><path data-ac-wrapper-id="116" id="ac_path_3b5ab1ed_31" fill="#60727b" fill-opacity="1" stroke="#435056" stroke-opacity="1" d="M 599.375 186.40426709993335 A 4 4 0 0 1 591.375 186.40426709993335 A 4 4 0 0 1 599.375 186.40426709993335"/><path data-ac-wrapper-id="117" id="ac_path_3b5ab1ed_32" fill="#60727b" fill-opacity="1" stroke="#435056" stroke-opacity="1" d="M 651.625 192.8834534519389 A 4 4 0 0 1 643.625 192.8834534519389 A 4 4 0 0 1 651.625 192.8834534519389"/><path data-ac-wrapper-id="118" id="ac_path_3b5ab1ed_33" fill="#333" fill-opacity="0.85" stroke="#212121" d="M 705.875 195.00488674129443 A 6 6 0 0 1 693.875 195.00488674129443 A 6 6 0 0 1 705.875 195.00488674129443" stroke-width="1.5"/></g><path data-ac-wrapper-id="30" id="ac_path_3b5ab1ed_k" fill="none" stroke="#CECECE" d="M 99 398.5 L 727 398.5"/><path data-ac-wrapper-id="31" id="ac_path_3b5ab1ed_l" fill="none" stroke="#CECECE" d="M 99.5 399 L 99.5 405 M 151.5 399 L 151.5 405 M 203.5 399 L 203.5 405 M 255.5 399 L 255.5 405 M 308.5 399 L 308.5 405 M 360.5 399 L 360.5 405 M 412.5 399 L 412.5 405 M 464.5 399 L 464.5 405 M 517.5 399 L 517.5 405 M 569.5 399 L 569.5 405 M 621.5 399 L 621.5 405 M 673.5 399 L 673.5 405 M 726.5 399 L 726.5 405"/><g data-ac-wrapper-id="32" id="ac_layer_3b5ab1ed_1a"><g data-ac-wrapper-id="33" id="ac_layer_3b5ab1ed_n"><g data-ac-wrapper-id="34" id="ac_unmanageable-layer_3b5ab1ed_m"><text aria-hidden="true" font-style="normal" font-variant="normal" font-family="Verdana, Helvetica, Arial, sans-serif" font-size="12" font-weight="normal" letter-spacing="normal" text-decoration="none" fill="#7c868e" opacity="1" x="113.16015625" y="421">Apr</text></g></g><g data-ac-wrapper-id="35" id="ac_layer_3b5ab1ed_p"><g data-ac-wrapper-id="36" id="ac_unmanageable-layer_3b5ab1ed_o"><text aria-hidden="true" font-style="normal" font-variant="normal" font-family="Verdana, Helvetica, Arial, sans-serif" font-size="12" font-weight="normal" letter-spacing="normal" text-decoration="none" fill="#7c868e" opacity="1" x="163.88671875" y="421">May</text></g></g><g data-ac-wrapper-id="37" id="ac_layer_3b5ab1ed_r"><g data-ac-wrapper-id="38" id="ac_unmanageable-layer_3b5ab1ed_q"><text aria-hidden="true" font-style="normal" font-variant="normal" font-family="Verdana, Helvetica, Arial, sans-serif" font-size="12" font-weight="normal" letter-spacing="normal" text-decoration="none" fill="#7c868e" opacity="1" x="218.671875" y="421">Jun</text></g></g><g data-ac-wrapper-id="39" id="ac_layer_3b5ab1ed_t"><g data-ac-wrapper-id="40" id="ac_unmanageable-layer_3b5ab1ed_s"><text aria-hidden="true" font-style="normal" font-variant="normal" font-family="Verdana, Helvetica, Arial, sans-serif" font-size="12" font-weight="normal" letter-spacing="normal" text-decoration="none" fill="#7c868e" opacity="1" x="272.828125" y="421">Jul</text></g></g><g data-ac-wrapper-id="41" id="ac_layer_3b5ab1ed_v"><g data-ac-wrapper-id="42" id="ac_unmanageable-layer_3b5ab1ed_u"><text aria-hidden="true" font-style="normal" font-variant="normal" font-family="Verdana, Helvetica, Arial, sans-serif" font-size="12" font-weight="normal" letter-spacing="normal" text-decoration="none" fill="#7c868e" opacity="1" x="321.390625" y="421">Aug</text></g></g><g data-ac-wrapper-id="43" id="ac_layer_3b5ab1ed_x"><g data-ac-wrapper-id="44" id="ac_unmanageable-layer_3b5ab1ed_w"><text aria-hidden="true" font-style="normal" font-variant="normal" font-family="Verdana, Helvetica, Arial, sans-serif" font-size="12" font-weight="normal" letter-spacing="normal" text-decoration="none" fill="#7c868e" opacity="1" x="373.82421875" y="421">Sep</text></g></g><g data-ac-wrapper-id="45" id="ac_layer_3b5ab1ed_z"><g data-ac-wrapper-id="46" id="ac_unmanageable-layer_3b5ab1ed_y"><text aria-hidden="true" font-style="normal" font-variant="normal" font-family="Verdana, Helvetica, Arial, sans-serif" font-size="12" font-weight="normal" letter-spacing="normal" text-decoration="none" fill="#7c868e" opacity="1" x="428.1513671875" y="421">Oct</text></g></g><g data-ac-wrapper-id="47" id="ac_layer_3b5ab1ed_11"><g data-ac-wrapper-id="48" id="ac_unmanageable-layer_3b5ab1ed_10"><text aria-hidden="true" font-style="normal" font-variant="normal" font-family="Verdana, Helvetica, Arial, sans-serif" font-size="12" font-weight="normal" letter-spacing="normal" text-decoration="none" fill="#7c868e" opacity="1" x="478.4140625" y="421">Nov</text></g></g><g data-ac-wrapper-id="49" id="ac_layer_3b5ab1ed_13"><g data-ac-wrapper-id="50" id="ac_unmanageable-layer_3b5ab1ed_12"><text aria-hidden="true" font-style="normal" font-variant="normal" font-family="Verdana, Helvetica, Arial, sans-serif" font-size="12" font-weight="normal" letter-spacing="normal" text-decoration="none" fill="#7c868e" opacity="1" x="530.802734375" y="421">Dec</text></g></g><g data-ac-wrapper-id="51" id="ac_layer_3b5ab1ed_15"><g data-ac-wrapper-id="52" id="ac_unmanageable-layer_3b5ab1ed_14"><text aria-hidden="true" font-style="normal" font-variant="normal" font-family="Verdana, Helvetica, Arial, sans-serif" font-size="12" font-weight="normal" letter-spacing="normal" text-decoration="none" fill="#7c868e" opacity="1" x="583.8671875" y="421">Jan</text></g></g><g data-ac-wrapper-id="53" id="ac_layer_3b5ab1ed_17"><g data-ac-wrapper-id="54" id="ac_unmanageable-layer_3b5ab1ed_16"><text aria-hidden="true" font-style="normal" font-variant="normal" font-family="Verdana, Helvetica, Arial, sans-serif" font-size="12" font-weight="normal" letter-spacing="normal" text-decoration="none" fill="#7c868e" opacity="1" x="636.6240234375" y="421">Feb</text></g></g><g data-ac-wrapper-id="55" id="ac_layer_3b5ab1ed_19"><g data-ac-wrapper-id="56" id="ac_unmanageable-layer_3b5ab1ed_18"><text aria-hidden="true" font-style="normal" font-variant="normal" font-family="Verdana, Helvetica, Arial, sans-serif" font-size="12" font-weight="normal" letter-spacing="normal" text-decoration="none" fill="#7c868e" opacity="1" x="687.83984375" y="421">Mar</text></g></g></g><path data-ac-wrapper-id="57" id="ac_path_3b5ab1ed_1b" fill="none" stroke="black" d="M 99.5 100 L 99.5 399"/><g data-ac-wrapper-id="58" transform="matrix(6.123233995736766e-17,-1,1,6.123233995736766e-17,20,293.03125)" id="ac_layer_3b5ab1ed_1d"><text data-ac-wrapper-id="59" font-style="normal" font-variant="normal" font-family="Verdana, Helvetica, Arial, sans-serif" font-size="13" font-weight="normal" fill="#545f69" letter-spacing="normal" text-decoration="none" direction="ltr" text-anchor="middle" x="44.03125" y="13" aria-hidden="true" id="ac_text_3b5ab1ed_1c" style="user-select: none; font-family: Verdana, Helvetica, Arial, sans-serif; opacity: 1;"><tspan x="44.03125" dy="0">Capitalization</tspan></text></g><path data-ac-wrapper-id="60" id="ac_path_3b5ab1ed_1e" fill="none" stroke="#60727b" stroke-width="1.5" d="M 99 398.5 L 93 398.5 M 99 323.5 L 93 323.5 M 99 249.5 L 93 249.5 M 99 174.5 L 93 174.5 M 99 100.5 L 93 100.5"/><g data-ac-wrapper-id="61" id="ac_layer_3b5ab1ed_1p"><g data-ac-wrapper-id="62" id="ac_layer_3b5ab1ed_1g"><g data-ac-wrapper-id="63" id="ac_unmanageable-layer_3b5ab1ed_1f"><text aria-hidden="true" font-style="normal" font-variant="normal" font-family="Verdana, Helvetica, Arial, sans-serif" font-size="12" font-weight="normal" letter-spacing="normal" text-decoration="none" fill="[object Object]" opacity="1" x="73.37109375" y="402">$0</text></g></g><g data-ac-wrapper-id="64" id="ac_layer_3b5ab1ed_1i"><g data-ac-wrapper-id="65" id="ac_unmanageable-layer_3b5ab1ed_1h"><text aria-hidden="true" font-style="normal" font-variant="normal" font-family="Verdana, Helvetica, Arial, sans-serif" font-size="12" font-weight="normal" letter-spacing="normal" text-decoration="none" fill="[object Object]" opacity="1" x="52.89453125" y="328">$90 B</text></g></g><g data-ac-wrapper-id="66" id="ac_layer_3b5ab1ed_1k"><g data-ac-wrapper-id="67" id="ac_unmanageable-layer_3b5ab1ed_1j"><text aria-hidden="true" font-style="normal" font-variant="normal" font-family="Verdana, Helvetica, Arial, sans-serif" font-size="12" font-weight="normal" letter-spacing="normal" text-decoration="none" fill="[object Object]" opacity="1" x="45.265625" y="253">$180 B</text></g></g><g data-ac-wrapper-id="68" id="ac_layer_3b5ab1ed_1m"><g data-ac-wrapper-id="69" id="ac_unmanageable-layer_3b5ab1ed_1l"><text aria-hidden="true" font-style="normal" font-variant="normal" font-family="Verdana, Helvetica, Arial, sans-serif" font-size="12" font-weight="normal" letter-spacing="normal" text-decoration="none" fill="[object Object]" opacity="1" x="45.265625" y="179">$270 B</text></g></g><g data-ac-wrapper-id="70" id="ac_layer_3b5ab1ed_1o"><g data-ac-wrapper-id="71" id="ac_unmanageable-layer_3b5ab1ed_1n"><text aria-hidden="true" font-style="normal" font-variant="normal" font-family="Verdana, Helvetica, Arial, sans-serif" font-size="12" font-weight="normal" letter-spacing="normal" text-decoration="none" fill="[object Object]" opacity="1" x="45.265625" y="104">$360 B</text></g></g></g><path data-ac-wrapper-id="72" id="ac_path_3b5ab1ed_1q" fill="none" stroke="#7bc0f7" d="M 726.5 100 L 726.5 399"/><g data-ac-wrapper-id="73" transform="matrix(6.123233995736766e-17,1,-1,6.123233995736766e-17,797,205.108154296875)" id="ac_layer_3b5ab1ed_1s"><text data-ac-wrapper-id="74" font-style="normal" font-variant="normal" font-family="Verdana, Helvetica, Arial, sans-serif" font-size="13" font-weight="normal" fill="#545f69" letter-spacing="normal" text-decoration="none" direction="ltr" text-anchor="middle" x="43.891845703125" y="13" aria-hidden="true" id="ac_text_3b5ab1ed_1r" style="user-select: none; font-family: Verdana, Helvetica, Arial, sans-serif; opacity: 1;"><tspan x="43.891845703125" dy="0">Market Share</tspan></text></g><path data-ac-wrapper-id="75" id="ac_path_3b5ab1ed_1t" fill="none" stroke="#7bc0f7" d="M 727 398.5 L 733 398.5 M 727 323.5 L 733 323.5 M 727 249.5 L 733 249.5 M 727 174.5 L 733 174.5 M 727 100.5 L 733 100.5"/><g data-ac-wrapper-id="76" id="ac_layer_3b5ab1ed_24"><g data-ac-wrapper-id="77" id="ac_layer_3b5ab1ed_1v"><g data-ac-wrapper-id="78" id="ac_unmanageable-layer_3b5ab1ed_1u"><text aria-hidden="true" font-style="normal" font-variant="normal" font-family="Verdana, Helvetica, Arial, sans-serif" font-size="12" font-weight="normal" letter-spacing="normal" text-decoration="none" fill="#7bc0f7" opacity="1" x="737" y="402">0%</text></g></g><g data-ac-wrapper-id="79" id="ac_layer_3b5ab1ed_1x"><g data-ac-wrapper-id="80" id="ac_unmanageable-layer_3b5ab1ed_1w"><text aria-hidden="true" font-style="normal" font-variant="normal" font-family="Verdana, Helvetica, Arial, sans-serif" font-size="12" font-weight="normal" letter-spacing="normal" text-decoration="none" fill="#7bc0f7" opacity="1" x="737" y="328">25%</text></g></g><g data-ac-wrapper-id="81" id="ac_layer_3b5ab1ed_1z"><g data-ac-wrapper-id="82" id="ac_unmanageable-layer_3b5ab1ed_1y"><text aria-hidden="true" font-style="normal" font-variant="normal" font-family="Verdana, Helvetica, Arial, sans-serif" font-size="12" font-weight="normal" letter-spacing="normal" text-decoration="none" fill="#7bc0f7" opacity="1" x="737" y="253">50%</text></g></g><g data-ac-wrapper-id="83" id="ac_layer_3b5ab1ed_21"><g data-ac-wrapper-id="84" id="ac_unmanageable-layer_3b5ab1ed_20"><text aria-hidden="true" font-style="normal" font-variant="normal" font-family="Verdana, Helvetica, Arial, sans-serif" font-size="12" font-weight="normal" letter-spacing="normal" text-decoration="none" fill="#7bc0f7" opacity="1" x="737" y="179">75%</text></g></g><g data-ac-wrapper-id="85" id="ac_layer_3b5ab1ed_23"><g data-ac-wrapper-id="86" id="ac_unmanageable-layer_3b5ab1ed_22"><text aria-hidden="true" font-style="normal" font-variant="normal" font-family="Verdana, Helvetica, Arial, sans-serif" font-size="12" font-weight="normal" letter-spacing="normal" text-decoration="none" fill="#7bc0f7" opacity="1" x="737" y="104">100%</text></g></g></g><g data-ac-wrapper-id="17" transform="matrix(1,0,0,1,249.1125,20)" id="ac_layer_3b5ab1ed_6"><text data-ac-wrapper-id="18" font-style="normal" font-variant="normal" font-family="Verdana, Helvetica, Arial, sans-serif" font-size="16" font-weight="normal" fill="#7c868e" letter-spacing="normal" text-decoration="none" direction="ltr" text-anchor="middle" x="159.1875" y="16" aria-hidden="true" id="ac_text_3b5ab1ed_5" style="user-select: none; font-family: Verdana, Helvetica, Arial, sans-serif; opacity: 1;"><tspan x="159.1875" dy="0">Bitcoin - Capitalization vs Market Share</tspan><tspan x="159.1875" dy="19">
</tspan><tspan font-size="12px" fill="#999" dy="0">(last 12 months)</tspan></text></g><g data-ac-wrapper-id="19" transform="matrix(1,0,0,1,289.003125,73)" clip-path="url(&quot;#ac_clip_3b5ab1ed_h&quot;)" clipPathUnits="userSpaceOnUse" id="ac_layer_3b5ab1ed_j"><g data-ac-wrapper-id="20" id="ac_layer_3b5ab1ed_f"><g data-ac-wrapper-id="21" transform="matrix(1,0,0,1,10,0)" id="ac_layer_3b5ab1ed_a"><text data-ac-wrapper-id="22" font-style="normal" font-variant="normal" font-family="Verdana, Helvetica, Arial, sans-serif" font-size="12" font-weight="normal" fill="#7c868e" letter-spacing="normal" text-decoration="none" direction="ltr" text-anchor="start" x="20" y="12.75" aria-hidden="true" id="ac_text_3b5ab1ed_7" style="user-select: none; font-family: Verdana, Helvetica, Arial, sans-serif; opacity: 1; cursor: pointer;"><tspan x="20" dy="0">Capitalization</tspan></text><path data-ac-wrapper-id="23" transform="matrix(1,0,0,1,0,0.75)" id="ac_path_3b5ab1ed_8" fill="#60727b" stroke="#60727b" stroke-width="1.5" d="M 0 0 L 15 0 15 15 0 15 Z" style="cursor: pointer;"/><path data-ac-wrapper-id="24" id="ac_rect_3b5ab1ed_9" fill="#FFFFFF" fill-opacity="0.00001" stroke="none" d="M 0 0 L 102.796875 0 102.796875 16.5 0 16.5 0 0 Z" style="cursor: pointer;"/></g><g data-ac-wrapper-id="25" transform="matrix(1,0,0,1,127.796875,0)" id="ac_layer_3b5ab1ed_e"><text data-ac-wrapper-id="26" font-style="normal" font-variant="normal" font-family="Verdana, Helvetica, Arial, sans-serif" font-size="12" font-weight="normal" fill="#7c868e" letter-spacing="normal" text-decoration="none" direction="ltr" text-anchor="start" x="20" y="12" aria-hidden="true" id="ac_text_3b5ab1ed_b" style="user-select: none; font-family: Verdana, Helvetica, Arial, sans-serif; opacity: 1; cursor: pointer;"><tspan x="20" dy="0">Market Share</tspan></text><path data-ac-wrapper-id="27" id="ac_path_3b5ab1ed_c" fill="#7bc0f7" stroke="none" d="M 0 0 L 15 0 15 15 0 15 Z" style="cursor: pointer;"/><path data-ac-wrapper-id="28" id="ac_rect_3b5ab1ed_d" fill="#FFFFFF" fill-opacity="0.00001" stroke="none" d="M 0 0 L 100.796875 0 100.796875 15 0 15 0 0 Z" style="cursor: pointer;"/></g></g></g></g><g data-ac-wrapper-id="125" role="article" aria-label="pie chart  entitled Cryptocurrency Market Share&lt;br&gt;&#10;            &lt;span style=&quot;font-size: 12px; color: #999&quot;&gt;&#10;              (29 Feb 2020)&#10;            &lt;/span&gt;, with 7 points. Min value is 1.5495206741, max value is 63.7693961271." id="ac_chart_3b5ab1ed_39"><g data-ac-wrapper-id="126" id="ac_layer_3b5ab1ed_3b"><path data-ac-wrapper-id="127" id="ac_path_3b5ab1ed_3a" fill="#ffffff" stroke="none" d="M 796.6 0 L 1138 0 1138 0 1138 441 1138 441 796.6 441 796.6 441 796.6 0 796.6 0 Z"/></g><circle data-ac-wrapper-id="191" cx="967.3" cy="218.5" r="39.825" id="ac_circle_3b5ab1ed_57" fill="none" stroke="none"/><g data-ac-wrapper-id="167" id="ac_layer_3b5ab1ed_4q"><path data-ac-wrapper-id="168" id="ac_path_3b5ab1ed_4j" fill="#b3dbfb" fill-opacity="0.5" stroke="none" d="M 0,0"/><path data-ac-wrapper-id="169" id="ac_path_3b5ab1ed_4k" fill="#8ebce9" fill-opacity="0.5" stroke="none" d="M 0,0"/><path data-ac-wrapper-id="170" id="ac_path_3b5ab1ed_4l" fill="#f7b782" fill-opacity="0.5" stroke="none" d="M 0,0"/><path data-ac-wrapper-id="171" id="ac_path_3b5ab1ed_4m" fill="#ffeba9" fill-opacity="0.5" stroke="none" d="M 0,0"/><path data-ac-wrapper-id="172" id="ac_path_3b5ab1ed_4n" fill="#a4afb3" fill-opacity="0.5" stroke="none" d="M 0,0"/><path data-ac-wrapper-id="173" id="ac_path_3b5ab1ed_4o" fill="#ee9782" fill-opacity="0.5" stroke="none" d="M 0,0"/><path data-ac-wrapper-id="174" id="ac_path_3b5ab1ed_4p" fill="#ccd4d4" fill-opacity="0.5" stroke="none" d="M 0,0"/></g><g data-ac-wrapper-id="175" id="ac_layer_3b5ab1ed_4y"><path data-ac-wrapper-id="176" id="ac_path_3b5ab1ed_4r" fill="#64b5f6" stroke="none" d="M 967.3 85.75 A 132.75 132.75 0 1 1 834.5520850613275 217.75597081040203 L 927.4756255183981 218.2767912431206 A 39.825 39.825 0 1 0 967.3 178.675 Z"/><path data-ac-wrapper-id="177" id="ac_path_3b5ab1ed_4s" fill="#1976d2" stroke="none" d="M 834.5520850613275 217.75597081040203 A 132.75 132.75 0 0 1 869.424504669408 128.8175049756572 L 937.9373514008224 191.59525149269714 A 39.825 39.825 0 0 0 927.4756255183981 218.2767912431206 Z"/><path data-ac-wrapper-id="178" id="ac_path_3b5ab1ed_4t" fill="#ef6c00" stroke="none" d="M 869.424504669408 128.8175049756572 A 132.75 132.75 0 0 1 901.0670281770931 103.45324453290293 L 947.4301084531279 183.98597335987088 A 39.825 39.825 0 0 0 937.9373514008224 191.59525149269714 Z"/><path data-ac-wrapper-id="179" id="ac_path_3b5ab1ed_4u" fill="#ffd54f" stroke="none" d="M 901.0670281770931 103.45324453290293 A 132.75 132.75 0 0 1 922.1404317748312 93.66740851157368 L 953.7521295324493 181.0502225534721 A 39.825 39.825 0 0 0 947.4301084531279 183.98597335987088 Z"/><path data-ac-wrapper-id="180" id="ac_path_3b5ab1ed_4v" fill="#455a64" stroke="none" d="M 922.1404317748312 93.66740851157368 A 132.75 132.75 0 0 1 936.9225521713288 89.27239782687153 L 958.1867656513986 179.73171934806146 A 39.825 39.825 0 0 0 953.7521295324493 181.0502225534721 Z"/><path data-ac-wrapper-id="181" id="ac_path_3b5ab1ed_4w" fill="#dd2c00" stroke="none" d="M 936.9225521713288 89.27239782687153 A 132.75 132.75 0 0 1 951.9043903453496 86.64577100691221 L 962.6813171036048 178.94373130207367 A 39.825 39.825 0 0 0 958.1867656513986 179.73171934806146 Z"/><path data-ac-wrapper-id="182" id="ac_path_3b5ab1ed_4x" fill="#96a6a6" stroke="none" d="M 951.9043903453496 86.64577100691221 A 132.75 132.75 0 0 1 967.3000000000002 85.75 L 967.3000000000001 178.675 A 39.825 39.825 0 0 0 962.6813171036048 178.94373130207367 Z"/></g><g data-ac-wrapper-id="183" pointer-events="none" id="ac_layer_3b5ab1ed_56"><path data-ac-wrapper-id="184" id="ac_path_3b5ab1ed_4r" fill="none" stroke="none" d="M 967.3 85.75 A 132.75 132.75 0 1 1 834.5520850613275 217.75597081040203 L 927.4756255183981 218.2767912431206 A 39.825 39.825 0 1 0 967.3 178.675 Z"/><path data-ac-wrapper-id="185" id="ac_path_3b5ab1ed_4s" fill="none" stroke="none" d="M 834.5520850613275 217.75597081040203 A 132.75 132.75 0 0 1 869.424504669408 128.8175049756572 L 937.9373514008224 191.59525149269714 A 39.825 39.825 0 0 0 927.4756255183981 218.2767912431206 Z"/><path data-ac-wrapper-id="186" id="ac_path_3b5ab1ed_4t" fill="none" stroke="none" d="M 869.424504669408 128.8175049756572 A 132.75 132.75 0 0 1 901.0670281770931 103.45324453290293 L 947.4301084531279 183.98597335987088 A 39.825 39.825 0 0 0 937.9373514008224 191.59525149269714 Z"/><path data-ac-wrapper-id="187" id="ac_path_3b5ab1ed_4u" fill="none" stroke="none" d="M 901.0670281770931 103.45324453290293 A 132.75 132.75 0 0 1 922.1404317748312 93.66740851157368 L 953.7521295324493 181.0502225534721 A 39.825 39.825 0 0 0 947.4301084531279 183.98597335987088 Z"/><path data-ac-wrapper-id="188" id="ac_path_3b5ab1ed_4v" fill="none" stroke="none" d="M 922.1404317748312 93.66740851157368 A 132.75 132.75 0 0 1 936.9225521713288 89.27239782687153 L 958.1867656513986 179.73171934806146 A 39.825 39.825 0 0 0 953.7521295324493 181.0502225534721 Z"/><path data-ac-wrapper-id="189" id="ac_path_3b5ab1ed_4w" fill="none" stroke="none" d="M 936.9225521713288 89.27239782687153 A 132.75 132.75 0 0 1 951.9043903453496 86.64577100691221 L 962.6813171036048 178.94373130207367 A 39.825 39.825 0 0 0 958.1867656513986 179.73171934806146 Z"/><path data-ac-wrapper-id="190" id="ac_path_3b5ab1ed_4x" fill="none" stroke="none" d="M 951.9043903453496 86.64577100691221 A 132.75 132.75 0 0 1 967.3000000000002 85.75 L 967.3000000000001 178.675 A 39.825 39.825 0 0 0 962.6813171036048 178.94373130207367 Z"/></g><g data-ac-wrapper-id="161" clip-path="url(&quot;#ac_clip_3b5ab1ed_4g&quot;)" clipPathUnits="userSpaceOnUse" id="ac_layer_3b5ab1ed_4i"><g data-ac-wrapper-id="162" id="ac_layer_3b5ab1ed_4c"><text data-ac-wrapper-id="163" font-style="normal" font-variant="normal" font-family="Verdana, Helvetica, Arial, sans-serif" font-size="12" font-weight="normal" fill="#ffffff" letter-spacing="normal" text-decoration="none" direction="ltr" text-anchor="start" x="1008.0172744358508" y="284.1852225966504" aria-hidden="true" pointer-events="none" id="ac_text_3b5ab1ed_4b" style="user-select: none; font-family: Verdana, Helvetica, Arial, sans-serif; opacity: 1;"><tspan x="1008.0172744358508" dy="0">75.1%</tspan></text></g><g data-ac-wrapper-id="164" id="ac_layer_3b5ab1ed_4e"><text data-ac-wrapper-id="165" font-style="normal" font-variant="normal" font-family="Verdana, Helvetica, Arial, sans-serif" font-size="12" font-weight="normal" fill="#ffffff" letter-spacing="normal" text-decoration="none" direction="ltr" text-anchor="start" x="866.8410127736641" y="191.5017452239964" aria-hidden="true" pointer-events="none" id="ac_text_3b5ab1ed_4d" style="user-select: none; font-family: Verdana, Helvetica, Arial, sans-serif; opacity: 1;"><tspan x="866.8410127736641" dy="0">11.7%</tspan></text></g></g><g data-ac-wrapper-id="128" transform="matrix(1,0,0,1,856.463330078125,20)" id="ac_layer_3b5ab1ed_3d"><text data-ac-wrapper-id="129" font-style="normal" font-variant="normal" font-family="Verdana, Helvetica, Arial, sans-serif" font-size="15" font-weight="normal" fill="#7c868e" letter-spacing="normal" text-decoration="none" direction="ltr" text-anchor="middle" x="110.836669921875" y="15" aria-hidden="true" id="ac_text_3b5ab1ed_3c" style="user-select: none; font-family: Verdana, Helvetica, Arial, sans-serif; opacity: 1;"><tspan x="110.836669921875" dy="0">Cryptocurrency Market Share</tspan><tspan x="110.836669921875" dy="18">
</tspan><tspan font-size="12px" fill="#999" dy="0">
(29 Feb 2020)
</tspan></text></g><g data-ac-wrapper-id="130" transform="matrix(1,0,0,1,820.7189453125,366)" clip-path="url(&quot;#ac_clip_3b5ab1ed_48&quot;)" clipPathUnits="userSpaceOnUse" id="ac_layer_3b5ab1ed_4a"><g data-ac-wrapper-id="131" id="ac_layer_3b5ab1ed_46"><g data-ac-wrapper-id="132" transform="matrix(1,0,0,1,10,10)" id="ac_layer_3b5ab1ed_3h"><text data-ac-wrapper-id="133" font-style="normal" font-variant="normal" font-family="Verdana, Helvetica, Arial, sans-serif" font-size="12" font-weight="normal" fill="#7c868e" letter-spacing="normal" text-decoration="none" direction="ltr" text-anchor="start" x="20" y="12" aria-hidden="true" id="ac_text_3b5ab1ed_3e" style="user-select: none; font-family: Verdana, Helvetica, Arial, sans-serif; opacity: 1; cursor: pointer;"><tspan x="20" dy="0">BTC</tspan></text><path data-ac-wrapper-id="134" id="ac_path_3b5ab1ed_3f" fill="#64b5f6" stroke="none" d="M 0 0 L 15 0 15 15 0 15 Z" style="cursor: pointer;"/><path data-ac-wrapper-id="135" id="ac_rect_3b5ab1ed_3g" fill="#FFFFFF" fill-opacity="0.00001" stroke="none" d="M 0 0 L 44.03515625 0 44.03515625 15 0 15 0 0 Z" style="cursor: pointer;"/></g><g data-ac-wrapper-id="136" transform="matrix(1,0,0,1,69.03515625,10)" id="ac_layer_3b5ab1ed_3l"><text data-ac-wrapper-id="137" font-style="normal" font-variant="normal" font-family="Verdana, Helvetica, Arial, sans-serif" font-size="12" font-weight="normal" fill="#7c868e" letter-spacing="normal" text-decoration="none" direction="ltr" text-anchor="start" x="20" y="12" aria-hidden="true" id="ac_text_3b5ab1ed_3i" style="user-select: none; font-family: Verdana, Helvetica, Arial, sans-serif; opacity: 1; cursor: pointer;"><tspan x="20" dy="0">ETH</tspan></text><path data-ac-wrapper-id="138" id="ac_path_3b5ab1ed_3j" fill="#1976d2" stroke="none" d="M 0 0 L 15 0 15 15 0 15 Z" style="cursor: pointer;"/><path data-ac-wrapper-id="139" id="ac_rect_3b5ab1ed_3k" fill="#FFFFFF" fill-opacity="0.00001" stroke="none" d="M 0 0 L 44 0 44 15 0 15 0 0 Z" style="cursor: pointer;"/></g><g data-ac-wrapper-id="140" transform="matrix(1,0,0,1,128.03515625,10)" id="ac_layer_3b5ab1ed_3p"><text data-ac-wrapper-id="141" font-style="normal" font-variant="normal" font-family="Verdana, Helvetica, Arial, sans-serif" font-size="12" font-weight="normal" fill="#7c868e" letter-spacing="normal" text-decoration="none" direction="ltr" text-anchor="start" x="20" y="12" aria-hidden="true" id="ac_text_3b5ab1ed_3m" style="user-select: none; font-family: Verdana, Helvetica, Arial, sans-serif; opacity: 1; cursor: pointer;"><tspan x="20" dy="0">XRP</tspan></text><path data-ac-wrapper-id="142" id="ac_path_3b5ab1ed_3n" fill="#ef6c00" stroke="none" d="M 0 0 L 15 0 15 15 0 15 Z" style="cursor: pointer;"/><path data-ac-wrapper-id="143" id="ac_rect_3b5ab1ed_3o" fill="#FFFFFF" fill-opacity="0.00001" stroke="none" d="M 0 0 L 44.564453125 0 44.564453125 15 0 15 0 0 Z" style="cursor: pointer;"/></g><g data-ac-wrapper-id="144" transform="matrix(1,0,0,1,187.599609375,10)" id="ac_layer_3b5ab1ed_3t"><text data-ac-wrapper-id="145" font-style="normal" font-variant="normal" font-family="Verdana, Helvetica, Arial, sans-serif" font-size="12" font-weight="normal" fill="#7c868e" letter-spacing="normal" text-decoration="none" direction="ltr" text-anchor="start" x="20" y="12" aria-hidden="true" id="ac_text_3b5ab1ed_3q" style="user-select: none; font-family: Verdana, Helvetica, Arial, sans-serif; opacity: 1; cursor: pointer;"><tspan x="20" dy="0">Bitcoin-Cash</tspan></text><path data-ac-wrapper-id="146" id="ac_path_3b5ab1ed_3r" fill="#ffd54f" stroke="none" d="M 0 0 L 15 0 15 15 0 15 Z" style="cursor: pointer;"/><path data-ac-wrapper-id="147" id="ac_rect_3b5ab1ed_3s" fill="#FFFFFF" fill-opacity="0.00001" stroke="none" d="M 0 0 L 95.5625 0 95.5625 15 0 15 0 0 Z" style="cursor: pointer;"/></g><g data-ac-wrapper-id="148" transform="matrix(1,0,0,1,10,40)" id="ac_layer_3b5ab1ed_3x"><text data-ac-wrapper-id="149" font-style="normal" font-variant="normal" font-family="Verdana, Helvetica, Arial, sans-serif" font-size="12" font-weight="normal" fill="#7c868e" letter-spacing="normal" text-decoration="none" direction="ltr" text-anchor="start" x="20" y="12" aria-hidden="true" id="ac_text_3b5ab1ed_3u" style="user-select: none; font-family: Verdana, Helvetica, Arial, sans-serif; opacity: 1; cursor: pointer;"><tspan x="20" dy="0">Others</tspan></text><path data-ac-wrapper-id="150" id="ac_path_3b5ab1ed_3v" fill="#455a64" stroke="none" d="M 0 0 L 15 0 15 15 0 15 Z" style="cursor: pointer;"/><path data-ac-wrapper-id="151" id="ac_rect_3b5ab1ed_3w" fill="#FFFFFF" fill-opacity="0.00001" stroke="none" d="M 0 0 L 61.037109375 0 61.037109375 15 0 15 0 0 Z" style="cursor: pointer;"/></g><g data-ac-wrapper-id="152" transform="matrix(1,0,0,1,86.037109375,40)" id="ac_layer_3b5ab1ed_41"><text data-ac-wrapper-id="153" font-style="normal" font-variant="normal" font-family="Verdana, Helvetica, Arial, sans-serif" font-size="12" font-weight="normal" fill="#7c868e" letter-spacing="normal" text-decoration="none" direction="ltr" text-anchor="start" x="20" y="12" aria-hidden="true" id="ac_text_3b5ab1ed_3y" style="user-select: none; font-family: Verdana, Helvetica, Arial, sans-serif; opacity: 1; cursor: pointer;"><tspan x="20" dy="0">LTC</tspan></text><path data-ac-wrapper-id="154" id="ac_path_3b5ab1ed_3z" fill="#dd2c00" stroke="none" d="M 0 0 L 15 0 15 15 0 15 Z" style="cursor: pointer;"/><path data-ac-wrapper-id="155" id="ac_rect_3b5ab1ed_40" fill="#FFFFFF" fill-opacity="0.00001" stroke="none" d="M 0 0 L 41.84375 0 41.84375 15 0 15 0 0 Z" style="cursor: pointer;"/></g><g data-ac-wrapper-id="156" transform="matrix(1,0,0,1,142.880859375,40)" id="ac_layer_3b5ab1ed_45"><text data-ac-wrapper-id="157" font-style="normal" font-variant="normal" font-family="Verdana, Helvetica, Arial, sans-serif" font-size="12" font-weight="normal" fill="#7c868e" letter-spacing="normal" text-decoration="none" direction="ltr" text-anchor="start" x="20" y="12" aria-hidden="true" id="ac_text_3b5ab1ed_42" style="user-select: none; font-family: Verdana, Helvetica, Arial, sans-serif; opacity: 1; cursor: pointer;"><tspan x="20" dy="0">Others</tspan></text><path data-ac-wrapper-id="158" id="ac_path_3b5ab1ed_43" fill="#96a6a6" stroke="none" d="M 0 0 L 15 0 15 15 0 15 Z" style="cursor: pointer;"/><path data-ac-wrapper-id="159" id="ac_rect_3b5ab1ed_44" fill="#FFFFFF" fill-opacity="0.00001" stroke="none" d="M 0 0 L 61.037109375 0 61.037109375 15 0 15 0 0 Z" style="cursor: pointer;"/></g></g></g></g></g></svg>